<svg width="28" height="28" viewBox="0 0 28 28" fill="none" xmlns="http://www.w3.org/2000/svg">
<path d="M15.7573 11.666H5.24271C4.28021 11.666 3.5 12.3812 3.5 13.2635V22.9019C3.5 23.7842 4.28021 24.4993 5.24271 24.4993H15.7573C16.7198 24.4993 17.5 23.7842 17.5 22.9019V13.2635C17.5 12.3812 16.7198 11.666 15.7573 11.666ZM22.6625 12.926L18.6667 15.4525V20.7128L22.6625 23.2361C23.4354 23.724 24.5 23.226 24.5 22.3738V13.7882C24.5 12.9393 23.4391 12.438 22.6625 12.926Z" fill="#ED1C24"/>
<path d="M10.8736 3.5C12.6629 3.53933 14.236 4.11938 15.573 5.30899C16.1531 5.82022 16.2317 6.45927 15.7893 6.94101C15.3567 7.41292 14.7668 7.38343 14.1868 6.88202C12.191 5.16152 9.53651 5.16152 7.53089 6.90169C6.96067 7.39326 6.35112 7.40309 5.92837 6.92135C5.50561 6.43961 5.58427 5.83006 6.14466 5.32865C7.48174 4.11938 9.0646 3.52949 10.8736 3.5Z" fill="#ED1C24"/>
<path d="M10.8638 7.00977C11.7486 7.02943 12.5253 7.32437 13.184 7.92409C13.6952 8.38617 13.7542 9.02521 13.3511 9.48729C12.948 9.93954 12.3483 9.94937 11.8174 9.51679C11.1489 8.96623 10.559 8.97606 9.88063 9.52662C9.35956 9.94937 8.75001 9.92971 8.34692 9.46763C7.95366 9.01538 8.01265 8.396 8.50422 7.94375C9.17276 7.32437 9.95928 7.02943 10.8638 7.00977Z" fill="#ED1C24"/>
</svg>
