<svg width="28" height="28" viewBox="0 0 28 28" fill="none" xmlns="http://www.w3.org/2000/svg">
<path d="M24.1374 21.6669C24.1072 21.7757 24.0792 21.8849 24.0459 21.9926C23.7514 22.9342 22.8114 23.5086 21.8107 23.3589C20.8815 23.2206 20.1504 22.3754 20.1499 21.4155C20.1467 17.0867 20.1483 12.758 20.1488 8.42974C20.1488 8.37806 20.1553 8.32584 20.1596 8.26501C20.2027 8.26124 20.235 8.2564 20.2673 8.2564C21.3412 8.25586 22.4147 8.25586 23.4887 8.25586C23.8208 8.25586 24.0211 8.43728 24.1379 8.73175C24.1374 13.0433 24.1374 17.3548 24.1374 21.6669Z" fill="#ED1C24"/>
<path d="M19.5421 23.326C19.4329 23.326 19.3731 23.326 19.3133 23.326C15.0626 23.326 10.8114 23.3276 6.56067 23.3249C5.08186 23.3239 3.87868 22.3533 3.57129 20.9148C3.5266 20.7065 3.5083 20.489 3.50776 20.2758C3.50507 15.1051 3.50561 9.93435 3.50615 4.76362C3.50615 4.30765 3.74409 4.0654 4.2006 4.06486C8.88091 4.06432 13.5612 4.06432 18.2421 4.06486C18.705 4.06486 18.9392 4.30819 18.9392 4.78138C18.9392 10.2681 18.943 15.7543 18.9349 21.241C18.9338 21.9861 19.0727 22.6768 19.5421 23.326ZM13.4966 17.8458C14.2217 17.8458 14.9474 17.8468 15.6726 17.8452C16.1226 17.8447 16.3595 17.611 16.3595 17.1664C16.3606 15.7156 16.3606 14.2653 16.3595 12.8145C16.3589 12.3719 16.1178 12.1248 15.6769 12.1243C14.2261 12.1222 12.7758 12.1222 11.325 12.1243C10.8798 12.1248 10.6386 12.3687 10.638 12.8101C10.637 14.261 10.637 15.7112 10.638 17.1621C10.638 17.6094 10.8728 17.8447 11.3206 17.8452C12.0463 17.8468 12.7715 17.8458 13.4966 17.8458ZM11.2345 8.17452C12.6907 8.17452 14.1464 8.17452 15.6026 8.17452C15.6763 8.17452 15.7506 8.17722 15.8238 8.16968C16.2012 8.13146 16.4462 7.74924 16.3261 7.38963C16.2314 7.10539 16.0112 6.96596 15.6483 6.96596C12.7096 6.96542 9.77024 6.96542 6.83146 6.96596C6.77116 6.96596 6.71033 6.96596 6.65111 6.97618C6.43039 7.01279 6.2662 7.13176 6.17576 7.33687C5.99596 7.74655 6.29419 8.17237 6.76578 8.17345C8.25536 8.17668 9.74494 8.17452 11.2345 8.17452ZM11.2453 10.7537C12.6746 10.7537 14.1039 10.7537 15.5331 10.7537C15.6203 10.7537 15.7076 10.7564 15.7948 10.751C16.0909 10.7327 16.3245 10.5082 16.3573 10.2154C16.3896 9.9295 16.2023 9.6528 15.9164 9.57635C15.8335 9.55428 15.7447 9.54567 15.6586 9.54567C12.7128 9.54405 9.76701 9.54405 6.82177 9.54567C6.72917 9.54567 6.61666 9.53921 6.54775 9.58604C6.40994 9.68025 6.24897 9.78738 6.18061 9.92896C5.98627 10.3311 6.30065 10.751 6.77655 10.7521C8.26559 10.7553 9.75517 10.7537 11.2453 10.7537ZM11.2264 20.4249C12.0996 20.4249 12.9728 20.4249 13.8455 20.4249C14.4769 20.4249 15.1079 20.4276 15.7393 20.4233C16.0769 20.4212 16.3256 20.1961 16.3568 19.8801C16.3875 19.5717 16.1711 19.2906 15.8502 19.2309C15.7652 19.2153 15.6763 19.2164 15.5897 19.2164C12.8226 19.2158 10.0556 19.2158 7.2885 19.2158C7.10708 19.2158 6.92566 19.2115 6.74478 19.218C6.48046 19.2271 6.27966 19.3477 6.17361 19.5937C5.99703 20.005 6.29796 20.4228 6.77331 20.4238C8.25805 20.4265 9.74224 20.4249 11.2264 20.4249ZM7.69441 14.2997C7.99588 14.2997 8.29735 14.2997 8.59882 14.2997C8.61227 14.2997 8.62573 14.2997 8.63919 14.2997C9.00203 14.2916 9.26366 14.0446 9.26743 13.7059C9.2712 13.3802 9.01872 13.103 8.67257 13.0965C8.0228 13.0836 7.37302 13.0842 6.72325 13.096C6.36849 13.1025 6.11224 13.3889 6.12516 13.7221C6.13808 14.0521 6.39648 14.2938 6.74963 14.2986C7.06509 14.303 7.37948 14.2997 7.69441 14.2997ZM7.6858 16.8784C8.00072 16.8784 8.31565 16.8811 8.63058 16.8778C8.99719 16.8741 9.25882 16.6313 9.26743 16.2932C9.27658 15.9519 9.01064 15.6773 8.64135 15.6725C8.01203 15.6644 7.38217 15.6644 6.75232 15.6725C6.38356 15.6773 6.11708 15.9513 6.1257 16.2926C6.13377 16.6302 6.39594 16.8741 6.76147 16.8778C7.0694 16.8811 7.37787 16.8784 7.6858 16.8784Z" fill="#ED1C24"/>
<path d="M15.1407 13.3438C15.1407 14.4479 15.1407 15.5326 15.1407 16.6276C14.0446 16.6276 12.9593 16.6276 11.8606 16.6276C11.8606 15.5342 11.8606 14.4441 11.8606 13.3438C12.954 13.3438 14.0387 13.3438 15.1407 13.3438Z" fill="#ED1C24"/>
</svg>
