<svg width="24" height="24" viewBox="0 0 24 24" fill="none" xmlns="http://www.w3.org/2000/svg">
                                    <g clip-path="url(#clip0_5112_10163)">
                                        <path d="M20.4286 13.3994C20.2074 16.1297 18.7801 18.1276 16.475 19.5425C15.3118 20.2535 14.0486 20.744 12.7069 20.9858C12.4215 21.0355 12.0932 20.9573 11.8006 20.8862C9.60971 20.3246 7.66858 19.3363 6.21274 17.5588C5.08518 16.1652 4.5428 14.5583 4.51426 12.788C4.48571 10.7545 4.50712 8.71393 4.49998 6.68047C4.49998 6.4174 4.57135 6.26809 4.86395 6.22543C7.44022 5.8486 9.90944 5.11627 12.2859 4.04266C12.4072 3.98578 12.5928 3.98578 12.7141 4.04266C15.0763 5.10916 17.5312 5.84149 20.1003 6.21832C20.4001 6.26098 20.5 6.39607 20.4928 6.68758C20.4857 7.75408 20.5214 12.2334 20.4286 13.3994ZM12.4928 17.6156C15.3189 17.6156 17.624 15.3262 17.6311 12.5178C17.6383 9.688 15.3403 7.37725 12.5 7.37725C9.67394 7.37725 7.36885 9.66667 7.36171 12.4751C7.35458 15.3049 9.65966 17.6085 12.4928 17.6156Z" fill="#ED1C24" />
                                        <path d="M11.3582 11.359C11.3582 10.8827 11.3653 10.4632 11.3582 10.0366C11.351 9.7664 11.4795 9.64553 11.7507 9.65264C12.2645 9.65975 12.7712 9.65264 13.285 9.65264C13.5348 9.65264 13.6561 9.77351 13.649 10.0224C13.649 10.449 13.649 10.8756 13.649 11.359C14.07 11.359 14.4768 11.359 14.8836 11.359C15.2975 11.359 15.3546 11.4159 15.3617 11.8354C15.3617 12.2976 15.3546 12.7597 15.3617 13.2219C15.3689 13.5276 15.2333 13.6485 14.9335 13.6413C14.5196 13.6342 14.1057 13.6413 13.649 13.6413C13.649 14.0751 13.6347 14.4803 13.6561 14.8927C13.6704 15.234 13.5277 15.362 13.1922 15.3549C12.7212 15.3406 12.2431 15.3477 11.765 15.3549C11.4795 15.362 11.3582 15.2269 11.3653 14.9496C11.3724 14.5372 11.3653 14.1248 11.3653 13.6485C10.9443 13.6485 10.5375 13.6485 10.1236 13.6485C9.70964 13.6485 9.65255 13.5845 9.65255 13.1721C9.65255 12.7099 9.65969 12.2478 9.65255 11.7856C9.64541 11.4799 9.78101 11.359 10.0807 11.3661C10.4875 11.3661 10.9014 11.359 11.3582 11.359Z" fill="#ED1C24" />
                                    </g>
                                    <defs>
                                        <clipPath id="clip0_5112_10163">
                                            <rect width="16" height="17" fill="white" transform="translate(4.5 4)" />
                                        </clipPath>
                                    </defs>
                                </svg>