<svg width="24" height="24" viewBox="0 0 24 24" fill="none" xmlns="http://www.w3.org/2000/svg">
                                    <g clip-path="url(#clip0_5112_15617)">
                                        <path d="M12 21C9.73594 21 7.47891 21 5.21484 21C3.86484 21 3 20.1352 3 18.7781C3 14.257 3 9.73594 3 5.21484C3 3.85781 3.86484 3 5.22187 3C9.74297 3 14.2641 3 18.7852 3C20.1422 3 21 3.86484 21 5.22187C21 9.74297 21 14.2641 21 18.7852C21 20.1352 20.1352 21 18.7781 21C16.5211 21 14.257 21 12 21ZM10.5094 13.4977C10.5094 13.8633 10.5094 14.2219 10.5094 14.5875C10.5094 15.7266 10.5656 15.7828 11.6977 15.7406C12.6961 15.7055 13.5469 15.0375 13.807 14.0742C14.0672 13.1039 13.6453 12.0914 12.7734 11.5641C12.225 11.2336 11.6133 11.2055 11.0086 11.2617C10.6852 11.2898 10.5164 11.5148 10.5164 11.8453C10.5094 12.3938 10.5094 12.9492 10.5094 13.4977ZM7.87266 14.6367C7.87266 14.8336 7.86563 14.9953 7.87266 15.157C7.89375 15.5227 8.11875 15.7406 8.44922 15.7336C8.77266 15.7266 8.99062 15.5016 8.99062 15.1359C8.99766 14.3203 9.00469 13.4977 8.98359 12.682C8.9625 11.8734 8.30156 11.2547 7.50703 11.2477C6.7125 11.2406 6.0375 11.8664 6.01641 12.668C5.99531 13.4977 6.00234 14.3273 6.00937 15.157C6.00937 15.5086 6.22031 15.7266 6.53672 15.7336C6.86016 15.7477 7.09922 15.5297 7.12734 15.1711C7.14141 15.0023 7.12734 14.8266 7.12734 14.6367C7.3875 14.6367 7.60547 14.6367 7.87266 14.6367ZM16.1484 15.7406C16.3242 15.7406 16.5 15.7477 16.6758 15.7406C17.2453 15.7195 17.7094 15.3891 17.9062 14.8547C18.2367 13.9266 17.625 12.893 16.5281 12.9352C16.3242 12.9422 16.1414 12.9281 16.1414 12.6539C16.1484 12.3938 16.3242 12.3656 16.5352 12.3656C16.8164 12.3656 17.0977 12.3727 17.3789 12.3656C17.7586 12.3586 17.9836 12.1617 17.9977 11.8383C18.0117 11.4937 17.7867 11.2617 17.4 11.2477C17.0344 11.2336 16.6758 11.2266 16.3102 11.2547C15.7336 11.2898 15.3187 11.5922 15.1078 12.1336C14.7281 13.0828 15.3891 14.032 16.4297 14.0602C16.6477 14.0672 16.8797 14.0602 16.8656 14.3695C16.8516 14.6719 16.6195 14.6227 16.4227 14.6297C16.1414 14.6297 15.8602 14.6227 15.5789 14.6367C15.2203 14.6578 15.0023 14.8898 15.0164 15.2203C15.0305 15.5297 15.2414 15.7336 15.593 15.7477C15.7758 15.7477 15.9656 15.7406 16.1484 15.7406ZM16.1766 6.76875C15.7687 7.1625 15.2344 7.59141 15.7688 8.175C16.3664 8.81484 16.8234 8.22422 17.2453 7.8375C18.0188 8.48438 18.3633 8.58281 18.6937 8.22422C18.8133 8.09766 18.9609 7.86562 18.9187 7.73906C18.7992 7.38047 18.5883 7.05 18.4055 6.68438C18.9961 5.96016 19.0875 5.67188 18.743 5.32734C18.6234 5.20781 18.4336 5.10938 18.2578 5.08125C17.7797 5.00391 17.5687 5.44688 17.2523 5.67188C16.507 5.00391 16.1836 4.9125 15.818 5.27813C15.7055 5.39062 15.6211 5.57344 15.5859 5.73516C15.4875 6.21328 15.9305 6.42422 16.1766 6.76875Z" fill="#ED1C24" />
                                        <path d="M11.6484 14.593C11.6484 13.8477 11.6484 13.1305 11.6484 12.4062C12.2672 12.4062 12.7453 12.8773 12.7523 13.482C12.7594 14.0938 12.2883 14.5789 11.6484 14.593Z" fill="#ED1C24" />
                                        <path d="M7.86563 13.4783C7.60547 13.4783 7.39453 13.4783 7.14141 13.4783C7.14141 13.2111 7.09922 12.951 7.15547 12.7119C7.1836 12.5853 7.38047 12.3955 7.48594 12.4025C7.61953 12.4166 7.80938 12.5853 7.85156 12.7189C7.90781 12.951 7.86563 13.2041 7.86563 13.4783Z" fill="#ED1C24" />
                                    </g>
                                    <defs>
                                        <clipPath id="clip0_5112_15617">
                                            <rect width="18" height="18" fill="white" transform="translate(3 3)" />
                                        </clipPath>
                                    </defs>
                                </svg>