<svg width="24" height="24" viewBox="0 0 24 24" fill="none" xmlns="http://www.w3.org/2000/svg">
                                    <g clip-path="url(#clip0_5112_17424)">
                                        <path d="M5.10668 6.71416C4.59787 6.71416 4.14386 6.71416 3.67419 6.71416C3.67419 6.30695 3.67419 5.94673 3.67419 5.5317C3.83075 5.5317 3.9873 5.5317 4.13603 5.5317C6.24953 5.5317 8.36304 5.52387 10.4765 5.53953C10.727 5.53953 10.8601 5.46122 11.001 5.24979C11.1654 4.9992 11.408 4.7721 11.6585 4.60766C11.8542 4.48236 11.9169 4.35707 11.9169 4.14564C11.909 3.44086 11.9169 2.73608 11.9169 2.00781C12.3161 2.00781 12.684 2.00781 13.091 2.00781C13.091 2.72042 13.0988 3.41737 13.0832 4.12214C13.0754 4.35707 13.1458 4.48236 13.3572 4.61549C13.5998 4.7721 13.8425 4.99137 13.9834 5.23412C14.1399 5.49254 14.3043 5.54736 14.5783 5.54736C16.6683 5.53953 18.7505 5.53953 20.8405 5.53953C20.9971 5.53953 21.1458 5.53953 21.3259 5.53953C21.3259 5.9389 21.3259 6.29912 21.3259 6.71416C20.864 6.71416 20.41 6.71416 19.8855 6.71416C19.9638 6.91776 20.003 7.04305 20.0578 7.17618C20.817 9.03209 21.5685 10.8958 22.3513 12.7361C22.5313 13.1511 22.5313 13.5348 22.4139 13.9499C22.093 15.1245 21.0675 15.9937 19.8464 16.0877C19.275 16.1268 18.6957 16.1268 18.1243 16.0877C16.7388 15.9859 15.6116 14.8661 15.4863 13.48C15.4707 13.2842 15.5176 13.065 15.5959 12.877C16.363 10.9663 17.1458 9.06341 17.9286 7.16051C17.9756 7.04305 18.0147 6.91776 18.0773 6.75331C17.9364 6.73765 17.8268 6.71416 17.7172 6.71416C16.637 6.71416 15.5489 6.71416 14.4687 6.70632C14.2495 6.70632 14.1399 6.78463 14.0069 6.97257C13.8268 7.23099 13.592 7.47375 13.3259 7.64603C13.1302 7.77915 13.0754 7.90444 13.0754 8.11588C13.0832 10.6844 13.0832 13.2607 13.0754 15.8293C13.0754 16.0799 13.1458 16.1895 13.3963 16.2678C14.2887 16.5575 14.9149 17.1605 15.2437 18.0454C15.2906 18.1629 15.3141 18.2882 15.3533 18.4369C13.4354 18.4369 11.5646 18.4369 9.56852 18.4369C9.76421 18.0376 9.90511 17.6617 10.1165 17.3406C10.4844 16.7925 11.0088 16.4244 11.6429 16.2443C11.8542 16.1817 11.909 16.0877 11.909 15.8919C11.9012 13.2842 11.909 10.6687 11.8934 8.06106C11.8934 7.92794 11.7603 7.78698 11.6664 7.67735C11.4315 7.41893 11.1889 7.17618 10.9384 6.93342C10.8523 6.84728 10.7505 6.72982 10.6566 6.72199C9.44327 6.71416 8.22997 6.72199 7.01666 6.72199C6.99317 6.72199 6.96969 6.74548 6.9149 6.7768C6.96186 6.9021 7.00883 7.03522 7.0558 7.16051C7.81509 9.01643 8.56656 10.8802 9.34934 12.7204C9.52938 13.1355 9.52938 13.5192 9.41979 13.9342C9.09885 15.1088 8.07341 16.0015 6.8601 16.0642C6.10863 16.1033 5.33368 16.1112 4.6057 15.9624C3.44719 15.7196 2.60179 14.6546 2.4922 13.4722C2.47654 13.2764 2.52351 13.0571 2.60179 12.8692C3.36891 10.9585 4.15169 9.05558 4.93447 7.15268C4.98926 7.03522 5.03623 6.9021 5.10668 6.71416ZM8.04993 12.556C7.36891 10.9193 6.70355 9.33749 6.00687 7.65386C5.30237 9.35315 4.64484 10.935 3.96382 12.556C5.34151 12.556 6.66441 12.556 8.04993 12.556ZM21.0441 12.556C20.363 10.9272 19.7055 9.34532 19.001 7.65386C18.2965 9.35315 17.6311 10.935 16.9579 12.556C18.3435 12.556 19.6664 12.556 21.0441 12.556Z" fill="#ED1C24" />
                                        <path d="M17.7486 22.0017C14.2417 22.0017 10.7505 22.0017 7.26714 22.0017C7.02448 20.5686 7.79943 19.6367 9.21626 19.6289C11.408 19.6289 13.592 19.6289 15.7838 19.6289C17.2241 19.6367 17.9677 20.5216 17.7486 22.0017Z" fill="#ED1C24" />
                                    </g>
                                    <defs>
                                        <clipPath id="clip0_5112_17424">
                                            <rect width="20" height="20" fill="white" transform="translate(2.5 2)" />
                                        </clipPath>
                                    </defs>
                                </svg>