<svg width="24" height="24" viewBox="0 0 24 24" fill="none" xmlns="http://www.w3.org/2000/svg">
<rect x="-0.000488281" width="24" height="24" rx="12" fill="#F2F2F2"/>
<g clip-path="url(#clip0_3412_32129)">
<path d="M15.6748 5C15.6828 5.00783 15.6867 5.01565 15.6946 5.01957C16.0154 5.18002 16.0867 5.41873 15.9006 5.72789C15.3065 6.71406 14.7125 7.69632 14.1184 8.68249C13.9758 8.92121 13.8333 9.15993 13.6748 9.42212C13.7461 9.42212 13.7897 9.42212 13.8372 9.42212C14.3917 9.42212 14.9461 9.42604 15.4966 9.42212C15.6946 9.42212 15.857 9.48474 15.9521 9.66475C16.0471 9.84868 15.9996 10.013 15.8808 10.1696C13.5323 13.3668 11.1877 16.5601 8.84315 19.7574C8.72038 19.9256 8.56988 20.0274 8.35206 19.9883C8.16592 19.953 8.03127 19.8356 8.00751 19.6478C7.99167 19.5343 8.01939 19.4052 8.06295 19.2956C8.73226 17.515 9.40553 15.7344 10.0788 13.9538C10.2055 13.6212 10.3283 13.2885 10.463 12.9403C10.3917 12.9403 10.3362 12.9403 10.2847 12.9403C9.68672 12.9403 9.0887 12.9403 8.49068 12.9403C8.12632 12.9403 7.93226 12.6976 8.01543 12.3532C8.60553 10.0248 9.19167 7.69632 9.77384 5.37177C9.82137 5.18784 9.94018 5.08218 10.0986 5C11.956 5 13.8174 5 15.6748 5Z" fill="#ED1C24"/>
</g>
<defs>
<clipPath id="clip0_3412_32129">
<rect width="8" height="15" fill="white" transform="translate(7.99951 5)"/>
</clipPath>
</defs>
</svg>
